PathFileType	4	(X/Y/Z)	Run_300 02
DataRate	CameraRate	NumFrames	NumMarkers	Units	OrigDataRate	OrigDataStartFrame	OrigNumFrames
100	100	4	45	mm	100	188	137
Frame#	Time	LASI			RASI			LPSI			RPSI			RTH1			RTH2			RTH3			LTH1			LTH2			LTH3			RTB1			RTB2			RTB3			RLMAL			RMMAL			LTB1			LTB2			LTB3			RCAL			RTOE			RMT5			LCAL			LTOE			LMT5			LACR			RACR			CLAV			C7			LPSH			RUA1			RUA2			RUA3			RLEL			RMEL			LUA1			LUA2			LUA3			LLEL			LMEL			RFAsuperior			RFAradius			RFAulna			LFAsuperior			LFAradius			LFAulna			
		X1	Y1	Z1	X2	Y2	Z2	X3	Y3	Z3	X4	Y4	Z4	X5	Y5	Z5	X6	Y6	Z6	X7	Y7	Z7	X8	Y8	Z8	X9	Y9	Z9	X10	Y10	Z10	X11	Y11	Z11	X12	Y12	Z12	X13	Y13	Z13	X14	Y14	Z14	X15	Y15	Z15	X16	Y16	Z16	X17	Y17	Z17	X18	Y18	Z18	X19	Y19	Z19	X20	Y20	Z20	X21	Y21	Z21	X22	Y22	Z22	X23	Y23	Z23	X24	Y24	Z24	X25	Y25	Z25	X26	Y26	Z26	X27	Y27	Z27	X28	Y28	Z28	X29	Y29	Z29	X30	Y30	Z30	X31	Y31	Z31	X32	Y32	Z32	X33	Y33	Z33	X34	Y34	Z34	X35	Y35	Z35	X36	Y36	Z36	X37	Y37	Z37	X38	Y38	Z38	X39	Y39	Z39	X40	Y40	Z40	X41	Y41	Z41	X42	Y42	Z42	X43	Y43	Z43	X44	Y44	Z44	X45	Y45	Z45	

188	2.33	927.1568119999999	1019.779463	-434.980251	950.2762269999999	1009.037867	-201.501374	767.646897	1057.671691	-349.283123	776.062185	1051.59538	-260.453634	898.400005	752.803739	-156.549306	984.768767	694.717752	-179.950541	935.58867	586.147519	-185.910303	862.381899	803.189742	-477.417312	963.607707	715.211594	-465.912806	940.1948169999999	607.933621	-443.139666	851.71933	424.254019	-226.741666	788.9513920000001	457.836914	-186.580428	669.017413	414.386484	-223.742977	552.959934	441.085975	-204.776551	573.9983130000001	411.018756	-281.965256	989.672874	383.737551	-382.910236	883.330014	305.228344	-410.720093	909.44354	209.971515	-349.756637	520.888884	484.442852	-277.547627	522.204854	268.723842	-218.345853	498.723465	344.102281	-160.299051	754.238626	91.290143	-297.775218	983.801687	66.102451	-307.984294	920.948219	55.096746	-377.579802	899.52999	1506.143723	-493.448481	921.622764	1503.108517	-171.855162	987.2690229999999	1440.791232	-311.224042	875.307699	1533.578245	-329.644549	816.211577	1471.019397	-494.561158	851.38134	1369.290957	-76.936926	763.08809	1336.181763	-90.89277199999999	756.9794000000001	1287.009069	-39.773225	758.274314	1219.121765	-10.536326	722.685242	1208.646741	-92.37196299999999	802.519148	1383.018949	-552.577379	735.837447	1312.319807	-522.848137	737.459387	1268.207886	-583.503738	729.098216	1193.201597	-607.911097	713.947037	1181.727137	-519.658302	799.771033	1154.424924	-34.788414	972.911729	1139.71608	-130.933453	956.5567569999999	1077.476634	-108.488731	801.519806	1137.052665	-575.611781	964.972431	1187.576943	-534.366313	962.995807	1119.08334	-537.697512	
189	2.34	924.188274	1017.557931	-435.288895	946.881331	1007.19808	-199.46432	763.459796	1056.215473	-348.089886	771.687445	1049.547115	-259.31905	905.193327	753.388469	-155.934489	995.809451	700.47168	-180.092401	952.904571	589.64257	-185.27038	855.1119650000001	800.492192	-477.607334	954.199121	710.332044	-466.669186	928.186404	603.306376	-444.275952	875.516089	426.627917	-225.94997	812.163177	458.352891	-185.419981	692.968327	412.12332	-221.578872	576.4331	435.696037	-201.597004	597.295438	407.022934	-279.294927	970.729297	377.417407	-383.805307	861.788601	302.784792	-411.469335	883.6421800000001	207.105165	-350.033211	541.069667	478.366122	-273.444048	552.330925	262.673976	-216.0025	527.2158470000001	336.535227	-156.74509	724.069195	91.863178	-298.14224	953.577863	65.880352	-308.465459	890.70347	54.944092	-378.14543	903.27094	1503.466508	-493.930479	919.064347	1501.015229	-171.472595	986.013006	1437.968327	-309.875165	874.575406	1531.600221	-329.715338	820.144042	1468.296845	-496.93419	845.421888	1368.482769	-77.817418	757.441228	1335.040364	-95.501098	749.483876	1286.648803	-43.35994	750.131392	1218.871374	-13.180391	716.433653	1207.700291	-95.366962	810.285516	1376.666565	-553.528945	743.546155	1302.526264	-528.158079	750.453275	1258.192242	-588.228078	746.3999219999999	1183.481157	-611.89754	727.102099	1171.268608	-524.585525	789.858878	1151.520812	-34.619081	964.590679	1127.190075	-125.298589	945.4426570000001	1066.180758	-101.725841	818.233962	1128.803686	-577.403568	979.338898	1181.703266	-531.1598739999999	978.03016	1113.090943	-534.358178	
190	2.35	921.894718	1016.921725	-435.374968	944.187805	1007.536492	-197.905873	761.121378	1056.490115	-348.165848	769.159996	1049.312416	-259.491831	911.95286	755.897921	-155.046298	1006.391864	708.039929	-180.502414	970.019507	595.477787	-184.721809	848.5074990000001	799.695667	-478.169022	943.98972	705.78065	-467.533065	914.4888539999999	599.800698	-445.241275	898.909549	429.788359	-225.628881	835.048255	459.39293	-184.464922	717.135002	409.19326	-219.728795	599.882098	428.471062	-198.664452	621.051369	401.168732	-276.885716	949.6253819999999	372.001504	-385.038944	837.868423	301.08359	-411.658641	857.071517	205.021896	-350.251249	561.049263	469.659096	-269.828311	584.499803	254.857917	-213.341069	556.573662	327.055306	-153.404759	694.122646	92.742966	-298.0634	923.415064	65.66132	-308.754802	860.5242019999999	54.872612	-378.416223	906.9222150000001	1503.023292	-494.060357	915.971176	1500.642423	-171.265876	984.52417	1436.764476	-308.488068	873.4427480000001	1531.144374	-329.950027	824.071503	1467.081366	-499.089305	839.291485	1369.611255	-78.774652	751.905834	1336.156511	-99.79747999999999	742.47239	1288.285811	-46.935138	741.966679	1220.517808	-15.84683	710.0339269999999	1209.125238	-98.437011	817.8051850000001	1373.360684	-554.622024	751.7303460000001	1296.436398	-533.101587	764.152224	1251.561241	-591.8910530000001	763.632347	1176.995851	-614.287311	740.2427	1164.615258	-528.060154	779.87425	1150.817072	-35.054284	955.678238	1118.643302	-120.56675	934.052279	1058.782978	-96.40819500000001	835.407506	1124.275456	-576.911887	993.177452	1181.301008	-526.162324	993.323562	1112.591255	-529.010265	
191	2.36	920.200575	1017.586667	-435.543535	942.327511	1009.821205	-197.508812	760.107815	1058.316283	-348.832129	768.071929	1051.009171	-260.374215	918.41498	760.362465	-154.233755	1016.131193	717.320704	-180.976219	986.328139	603.579487	-184.310091	841.843835	800.531568	-478.589488	932.891426	702.335952	-467.901042	899.389607	597.8202649999999	-445.781033	921.537387	434.070271	-226.051652	857.440563	460.955543	-183.726822	741.44738	405.486331	-218.283954	623.330005	419.317614	-195.990939	645.212344	393.402089	-274.733636	926.821409	368.205468	-386.255177	812.484346	300.72714	-411.622529	829.965451	204.114814	-350.605181	581.119937	458.329834	-266.758205	618.079423	245.391407	-210.585408	586.567009	315.742913	-150.358366	664.301504	93.86696999999999	-297.680495	893.234384	65.458327	-308.937577	830.35623	54.89262	-378.543461	910.172943	1504.774623	-493.86805	912.401387	1501.832601	-171.163879	983.0509499999999	1437.41671	-307.072287	872.328233	1532.48251	-330.345234	827.717266	1467.597426	-501.322747	833.074698	1371.995792	-79.73240800000001	746.130813	1339.155123	-102.987133	735.525173	1291.452582	-49.961802	733.367966	1223.760125	-18.336203	703.05511	1212.558773	-101.397386	825.422909	1372.939619	-556.64145	760.296496	1294.274688	-537.427695	777.565713	1248.362031	-594.347676	779.729772	1173.854556	-615.167769	752.679217	1161.851617	-529.858384	769.7670419999999	1152.431968	-35.970877	946.507738	1114.741241	-116.649247	922.847501	1055.67056	-92.656342	851.996126	1123.764448	-574.533626	1005.469437	1186.717744	-519.9302730000001	1008.010433	1117.996702	-522.163046	
